<svg height="479pt" viewBox="-23 0 479 479.99383" width="479pt" xmlns="http://www.w3.org/2000/svg"><g fill="#9bc9ff"><path d="m267.898438 414.742188c-.496094-1.644532-.953126-3.308594-1.335938-5.007813.351562 1.699219.839844 3.363281 1.335938 5.007813zm0 0"/><path d="m264.898438 399.238281c-.160157-1.765625-.242188-3.550781-.289063-5.351562.046875 1.800781.121094 3.585937.289063 5.351562zm0 0"/><path d="m266 406.984375c-.3125-1.601563-.566406-3.257813-.800781-4.90625.21875 1.65625.488281 3.289063.800781 4.90625zm0 0"/><path d="m346.410156 312.097656c1.789063.046875 3.574219.125 5.335938.277344-1.769532-.152344-3.546875-.230469-5.335938-.277344zm0 0"/><path d="m337.9375 312.335938c1.960938-.167969 3.925781-.289063 5.917969-.304688-1.957031.015625-3.933594.136719-5.917969.304688zm0 0"/><path d="m271.234375 424c-1-2.257812-1.875-4.585938-2.65625-6.953125.78125 2.367187 1.65625 4.695313 2.65625 6.953125zm0 0"/><path d="m376.511719 318.71875c-2.253907-1-4.582031-1.871094-6.949219-2.65625 2.367188.785156 4.695312 1.65625 6.949219 2.65625zm0 0"/><path d="m362.257812 314.046875c1.6875.386719 3.34375.800781 4.984376 1.328125-1.640626-.488281-3.296876-.976562-4.984376-1.328125zm0 0"/><path d="m264.511719 391.359375c0-2.023437.136719-4 .304687-6.007813-.136718 2.015626-.253906 4.023438-.304687 6.007813zm0 0"/><path d="m354.585938 312.703125c1.65625.207031 3.285156.472656 4.902343.800781-1.617187-.328125-3.246093-.59375-4.902343-.800781zm0 0"/><path d="m336.136719 312.449219c-5.011719.511719-9.96875 1.484375-14.808594 2.894531-25.746094 7.628906-45.878906 27.777344-53.488281 53.527344-1.402344 4.828125-2.371094 9.769531-2.886719 14.769531 3.96875-37.546875 33.636719-67.21875 71.183594-71.191406zm0 0"/><path d="m360.511719 8h-248v80c0 8.835938-7.164063 16-16 16h-88v304c0 8.835938 7.164062 16 16 16h246.722656c-1-2.257812-1.875-4.585938-2.65625-6.953125-.25-.757813-.449219-1.535156-.679687-2.304687-.496094-1.644532-.953126-3.308594-1.335938-5.007813-.210938-.902344-.386719-1.824219-.5625-2.75-.3125-1.601563-.582031-3.234375-.800781-4.90625-.117188-.941406-.238281-1.886719-.316407-2.839844-.167968-1.765625-.242187-3.550781-.289062-5.351562 0-.628907-.097656-1.246094-.097656-1.886719 0-.214844 0-.425781 0-.640625 0-1.984375.136718-4 .304687-6.007813.046875-.566406.046875-1.152343.105469-1.710937.515625-5 1.480469-9.941406 2.886719-14.769531 7.613281-25.757813 27.761719-45.910156 53.519531-53.527344 4.839844-1.410156 9.792969-2.382812 14.808594-2.894531.59375-.066407 1.199218-.066407 1.800781-.113281 1.984375-.167969 4-.289063 5.917969-.304688h.65625c.640625 0 1.257812.089844 1.898437.097656 1.789063.046875 3.566407.128906 5.335938.277344.949219.089844 1.894531.210938 2.839843.328125 1.65625.210937 3.285157.472656 4.902344.800781.929688.175782 1.847656.351563 2.769532.570313 1.6875.382812 3.34375.796875 4.984374 1.328125.796876.230468 1.597657.429687 2.316407.6875 2.402343.800781 4.699219 1.65625 6.953125 2.65625v-294.777344c0-8.832031-7.152344-15.992188-15.984375-16zm0 0"/><path d="m264.847656 385.351562c.050782-.574218.050782-1.136718.105469-1.710937-.054687.558594-.054687 1.160156-.105469 1.710937zm0 0"/><path d="m264.511719 392c0 .640625.082031 1.257812.097656 1.886719 0-.796875-.074219-1.679688-.066406-2.527344-.03125.214844-.03125.425781-.03125.640625zm0 0"/><path d="m336.136719 312.449219c.601562-.066407 1.199219-.066407 1.800781-.113281-.625.046874-1.207031.046874-1.800781.113281zm0 0"/><path d="m265.21875 402.078125c-.121094-.941406-.242188-1.886719-.320312-2.839844.078124.953125.199218 1.898438.320312 2.839844zm0 0"/><path d="m268.578125 417.046875c-.25-.757813-.449219-1.535156-.679687-2.304687.230468.769531.429687 1.546874.679687 2.304687zm0 0"/><path d="m367.242188 315.375c.796874.234375 1.597656.433594 2.320312.6875-.761719-.253906-1.546875-.453125-2.320312-.6875zm0 0"/><path d="m359.488281 313.480469c.929688.175781 1.847657.359375 2.769531.566406-.945312-.214844-1.839843-.390625-2.769531-.566406zm0 0"/><path d="m266.5625 409.734375c-.210938-.902344-.386719-1.824219-.5625-2.75.175781.925781.351562 1.816406.5625 2.75zm0 0"/><path d="m351.714844 312.375c.949218.089844 1.894531.210938 2.839844.328125-.914063-.117187-1.859376-.238281-2.839844-.328125zm0 0"/><path d="m344.511719 312c-.222657 0-.429688 0-.65625 0 .859375 0 1.707031.046875 2.554687.0625-.640625.027344-1.257812-.0625-1.898437-.0625zm0 0"/></g><path d="m384.511719 313.6875v-289.6875c0-13.253906-10.742188-24-24-24h-248c-.175781 0-.328125.078125-.503907.0976562-.628906.0390628-1.253906.1562498-1.855468.3515628-.269532.066406-.539063.148437-.800782.246093-.835937.339844-1.609374.824219-2.285156 1.425782l-104 96c-.710937.6875-1.285156 1.5-1.699218 2.398437-.117188.261719-.21875.527344-.300782.800781-.261718.71875-.421875 1.46875-.464844 2.230469 0 .167969-.105468.320313-.105468.488281v303.960938c0 13.253906 10.746094 24 24 24h241.710937c17.308594 33.9375 54.5 52.875 92.125 46.910156s67.132813-35.476562 73.097657-73.101562c5.960937-37.628906-12.976563-74.816406-46.917969-92.121094zm-280-287.414062v61.726562c0 4.417969-3.582031 8-8 8h-67.535157zm-80 389.726562c-4.417969 0-8-3.582031-8-8v-296h80c13.257812 0 24-10.746094 24-24v-72h240c4.417969 0 8 3.582031 8 8v283.34375c-.503907-.136719-1.03125-.183594-1.535157-.320312-3.035156-.800782-6.113281-1.441407-9.214843-1.910157-.722657-.113281-1.433594-.25-2.160157-.34375-3.675781-.488281-7.378906-.742187-11.089843-.769531h-.664063c-3.671875.039062-7.335937.304688-10.976562.800781-1.023438.128907-2.039063.296875-3.0625.464844-2.671875.453125-5.289063 1.03125-7.871094 1.710937-.945312.246094-1.90625.351563-2.847656.625-28.363282 8.410157-50.539063 30.605469-58.929688 58.972657-.261718.921875-.367187 1.867187-.605468 2.785156-.691407 2.609375-1.273438 5.257813-1.722657 7.953125-.167969 1-.328125 1.984375-.457031 2.984375-.5 3.675781-.765625 7.378906-.796875 11.085937v.058594.496094c.035156 3.703125.300781 7.398438.796875 11.070312.097656.753907.234375 1.488282.355469 2.238282.460937 3.070312 1.09375 6.109375 1.894531 9.105468.136719.519532.183594 1.0625.328125 1.601563zm320 48c-28.621094-.007812-54.519531-16.96875-65.96875-43.199219-.917969-2.082031-1.703125-4.199219-2.398438-6.34375-.304687-.921875-.542969-1.855469-.800781-2.792969-.34375-1.207031-.6875-2.398437-.96875-3.65625-.277344-1.253906-.46875-2.289062-.671875-3.441406-.199219-1.152344-.359375-2.132812-.496094-3.199218-.15625-1.199219-.285156-2.398438-.382812-3.605469-.09375-1.210938-.128907-2.21875-.167969-3.328125-.039062-1.113282-.078125-2.355469-.0625-3.539063.015625-1.183593.101562-2.398437.183594-3.566406.0625-1.054687.105468-2.121094.214844-3.199219 3.726562-33.441406 30.089843-59.859375 63.519531-63.65625 1.183593-.128906 2.402343-.175781 3.554687-.25 1.054688-.0625 2.109375-.144531 3.199219-.160156 1.246094 0 2.496094 0 3.742187.066406 1.042969 0 2.089844.078125 3.121094.160156 1.246094.09375 2.496094.222657 3.734375.382813 1.050781.136719 2.089844.304687 3.128907.488281 1.167968.207032 2.335937.414063 3.496093.679688 1.160157.265625 2.449219.625 3.664063.976562.929687.261719 1.871094.496094 2.785156.800782 2.160156.710937 4.289062 1.511718 6.398438 2.398437 31.246093 13.644531 48.640624 47.332031 41.667968 80.707031s-36.394531 57.28125-70.492187 57.277344zm0 0" fill="#1e81ce"/><path d="m392.511719 384h-40v-40c0-4.417969-3.582031-8-8-8s-8 3.582031-8 8v40h-40c-4.417969 0-8 3.582031-8 8s3.582031 8 8 8h40v40c0 4.417969 3.582031 8 8 8s8-3.582031 8-8v-40h40c4.417969 0 8-3.582031 8-8s-3.582031-8-8-8zm0 0" fill="#1e81ce"/><path d="m72.511719 224h240c4.417969 0 8-3.582031 8-8s-3.582031-8-8-8h-240c-4.417969 0-8 3.582031-8 8s3.582031 8 8 8zm0 0" fill="#1e81ce"/><path d="m72.511719 272h240c4.417969 0 8-3.582031 8-8s-3.582031-8-8-8h-240c-4.417969 0-8 3.582031-8 8s3.582031 8 8 8zm0 0" fill="#1e81ce"/><path d="m72.511719 320h200c4.417969 0 8-3.582031 8-8s-3.582031-8-8-8h-200c-4.417969 0-8 3.582031-8 8s3.582031 8 8 8zm0 0" fill="#1e81ce"/><path d="m240.511719 352h-168c-4.417969 0-8 3.582031-8 8s3.582031 8 8 8h168c4.417969 0 8-3.582031 8-8s-3.582031-8-8-8zm0 0" fill="#1e81ce"/><path d="m136.511719 176h176c4.417969 0 8-3.582031 8-8s-3.582031-8-8-8h-176c-4.417969 0-8 3.582031-8 8s3.582031 8 8 8zm0 0" fill="#1e81ce"/><path d="m72.511719 176h32c4.417969 0 8-3.582031 8-8s-3.582031-8-8-8h-32c-4.417969 0-8 3.582031-8 8s3.582031 8 8 8zm0 0" fill="#1e81ce"/></svg>