<svg height="512" viewBox="0 0 64 64" width="512" xmlns="http://www.w3.org/2000/svg"><path d="m56.58 48.79-2.58-.7v2.91l-7 7-7-7v-2.91l-2.58.7a6.019 6.019 0 0 0 -3.23 2.21 5.946 5.946 0 0 0 -1.19 3.58v6.42h28v-6.42a6.013 6.013 0 0 0 -4.42-5.79z" fill="#bddbff"/><path d="m47 23a9 9 0 0 0 -9 9v3h4.69a7.935 7.935 0 0 0 4.58-1.45 7.542 7.542 0 0 0 1.07-.89l1.66-1.66.34.68a5.986 5.986 0 0 0 4.67 3.28 5.374 5.374 0 0 0 .7.04h.29v-3a9 9 0 0 0 -9-9z" fill="#bddbff"/><path d="m40.08 41a7.575 7.575 0 0 0 1.26 1.66 8.124 8.124 0 0 0 2.66 1.76v.58h-41l6-12h29v2h1v2a7.851 7.851 0 0 0 1.08 4z" fill="#bddbff"/><path d="m25 48h6a1 1 0 0 0 1-1v-2h12v2l-1.36.37-2.64.72-2.58.7a6.019 6.019 0 0 0 -3.23 2.21h-30.19a1 1 0 0 1 -1-1v-5h21v2a1 1 0 0 0 1 1z" fill="#bddbff"/><path d="m25.94 25h4.1a5.07 5.07 0 0 0 -.04.68v.32a2.015 2.015 0 0 1 -2 2 2.006 2.006 0 0 1 -2-2v-.15a6.073 6.073 0 0 0 -.06-.85z" fill="#bddbff"/><path d="m9 11v-6a2.006 2.006 0 0 1 2-2h34a2.006 2.006 0 0 1 2 2v6z" fill="#bddbff"/><g fill="#3d9ae2"><path d="m56.843 47.825-5.843-1.589v-1.186a9 9 0 0 0 5-8.05v-1a1 1 0 0 0 1-1v-3a10.013 10.013 0 0 0 -9-9.949v-17.051a3 3 0 0 0 -3-3h-34a3 3 0 0 0 -3 3v27.764l-5.895 11.789a1 1 0 0 0 -.105.447v5a2 2 0 0 0 2 2h28.517a6.928 6.928 0 0 0 -.517 2.58v6.42a1 1 0 0 0 1 1h28a1 1 0 0 0 1-1v-6.42a7.031 7.031 0 0 0 -5.157-6.755zm-15.843 1.027 1.4-.38 3.6 3v2.528h2v-2.531l3.6-3 1.4.38v1.734l-6 6-6-6zm-16-2.852h6v1h-6zm-20.382-2 5-10h27.382v1a1 1 0 0 0 1 1v1a8.983 8.983 0 0 0 3.356 7zm5.382-32h36v10.051a10.013 10.013 0 0 0 -9 9.949h-27zm39.349 35.743-2.349 1.957-2.349-1.956a.989.989 0 0 0 .349-.744v-1.232a8.737 8.737 0 0 0 4 0v1.232a.989.989 0 0 0 .349.743zm-2.349-3.743a7.008 7.008 0 0 1 -7-7v-1h2.687a8.937 8.937 0 0 0 6.363-2.636l.7-.7a6.943 6.943 0 0 0 4.25 3.123v1.213a7.008 7.008 0 0 1 -7 7zm8-12v1.951a4.969 4.969 0 0 1 -3.764-2.715l-.341-.683a1 1 0 0 0 -1.6-.26l-1.659 1.657a6.954 6.954 0 0 1 -4.949 2.05h-3.687v-2a8 8 0 0 1 16 0zm-44-28h34a1 1 0 0 1 1 1v5h-36v-5a1 1 0 0 1 1-1zm-7 46v-4h19v1a2 2 0 0 0 2 2h6a2 2 0 0 0 2-2v-1h10v.236l-5.846 1.59a7 7 0 0 0 -3.411 2.174zm56 10h-26v-5.42a5.024 5.024 0 0 1 3.683-4.825l1.317-.355v1.6a1 1 0 0 0 .293.707l7 7a1 1 0 0 0 1.414 0l7-7a1 1 0 0 0 .293-.707v-1.6l1.314.358a5.026 5.026 0 0 1 3.686 4.822z"/><path d="m47 40a2 2 0 0 1 -2-2h-2a4 4 0 0 0 8 0h-2a2 2 0 0 1 -2 2z"/><path d="m10 40h2v2h-2z"/><path d="m14 40h2v2h-2z"/><path d="m18 40h20v2h-20z"/><path d="m15 36h2v2h-2z"/><path d="m11 36h2v2h-2z"/><path d="m19 36h2v2h-2z"/><path d="m23 36h2v2h-2z"/><path d="m27 36h2v2h-2z"/><path d="m31 36h2v2h-2z"/><path d="m12 6h2v2h-2z"/><path d="m16 6h2v2h-2z"/><path d="m20 6h2v2h-2z"/><path d="m33 20a4.978 4.978 0 0 0 -1.892-3.917 5.031 5.031 0 0 0 -4.294-.945 4.987 4.987 0 0 0 -2.672 8.024 3.4 3.4 0 0 1 .487.838h-1.629v2h2a3 3 0 0 0 6 0h2v-2h-1.657a3.142 3.142 0 0 1 .465-.778 4.961 4.961 0 0 0 1.192-3.222zm-5 7a1 1 0 0 1 -1-1h2a1 1 0 0 1 -1 1zm-1.263-3a5.631 5.631 0 0 0 -1.055-2.114 2.986 2.986 0 0 1 1.585-4.8 3.252 3.252 0 0 1 .739-.086 2.956 2.956 0 0 1 1.858.649 2.989 2.989 0 0 1 1.136 2.351 2.922 2.922 0 0 1 -.712 1.922 5.307 5.307 0 0 0 -1.05 2.078z"/><path d="m36 19.764h2v4.472h-2z" transform="matrix(.447 -.894 .894 .447 .776 45.255)"/><path d="m34.764 15h4.472v2h-4.472z" transform="matrix(.894 -.447 .447 .894 -3.249 18.236)"/><path d="m16.764 21h4.472v2h-4.472z" transform="matrix(.894 -.447 .447 .894 -7.833 10.82)"/><path d="m18 13.764h2v4.472h-2z" transform="matrix(.447 -.894 .894 .447 -3.808 25.839)"/></g></svg>