<?xml version="1.0" encoding="iso-8859-1"?>
<!-- Generator: Adobe Illustrator 21.1.0, SVG Export Plug-In . SVG Version: 6.00 Build 0)  -->
<svg xmlns="http://www.w3.org/2000/svg" xmlns:xlink="http://www.w3.org/1999/xlink" version="1.1" id="Layer_1" x="0px" y="0px" viewBox="0 0 64 64" style="enable-background:new 0 0 64 64;" xml:space="preserve">
<g>
	<rect x="5" y="17" style="fill:#C5E4FA;" width="50" height="30"/>
	<polygon style="fill:#E3F2FF;" points="40,46 55,41 55,18 53,18 25,46  "/>
	<polygon style="fill:#E3F2FF;" points="15,46 21,46 49,18 43,18  "/>
	<polygon style="fill:#E3F2FF;" points="11,46 39,18 34,18 6,46  "/>
	<path style="fill:#FFEFB8;" d="M57,51H2c-0.552,0-1-0.448-1-1v-2c0-0.552,0.448-1,1-1h55c0.552,0,1,0.448,1,1v2   C58,50.552,57.552,51,57,51z"/>
	<path style="fill:#ACB7D0;" d="M57,17H3c-1.105,0-2-0.895-2-2V9c0-1.105,0.895-2,2-2h54c1.105,0,2,0.895,2,2v6   C59,16.105,58.105,17,57,17z"/>
	<circle style="fill:#72CAAF;" cx="51" cy="47" r="12"/>
	<g>
		<path style="fill:#8D6C9F;" d="M5,10c-0.552,0-1,0.447-1,1v2c0,0.553,0.448,1,1,1s1-0.447,1-1v-2C6,10.447,5.552,10,5,10z"/>
		<path style="fill:#8D6C9F;" d="M10,10c-0.552,0-1,0.447-1,1v2c0,0.553,0.448,1,1,1s1-0.447,1-1v-2C11,10.447,10.552,10,10,10z"/>
		<path style="fill:#8D6C9F;" d="M15,10c-0.552,0-1,0.447-1,1v2c0,0.553,0.448,1,1,1s1-0.447,1-1v-2C16,10.447,15.552,10,15,10z"/>
		<path style="fill:#8D6C9F;" d="M20,10c-0.552,0-1,0.447-1,1v2c0,0.553,0.448,1,1,1s1-0.447,1-1v-2C21,10.447,20.552,10,20,10z"/>
		<path style="fill:#8D6C9F;" d="M25,10c-0.552,0-1,0.447-1,1v2c0,0.553,0.448,1,1,1s1-0.447,1-1v-2C26,10.447,25.552,10,25,10z"/>
		<path style="fill:#8D6C9F;" d="M30,10c-0.552,0-1,0.447-1,1v2c0,0.553,0.448,1,1,1s1-0.447,1-1v-2C31,10.447,30.552,10,30,10z"/>
		<path style="fill:#8D6C9F;" d="M35,10c-0.552,0-1,0.447-1,1v2c0,0.553,0.448,1,1,1s1-0.447,1-1v-2C36,10.447,35.552,10,35,10z"/>
		<path style="fill:#8D6C9F;" d="M40,10c-0.552,0-1,0.447-1,1v2c0,0.553,0.448,1,1,1s1-0.447,1-1v-2C41,10.447,40.552,10,40,10z"/>
		<path style="fill:#8D6C9F;" d="M45,10c-0.552,0-1,0.447-1,1v2c0,0.553,0.448,1,1,1s1-0.447,1-1v-2C46,10.447,45.552,10,45,10z"/>
		<path style="fill:#8D6C9F;" d="M50,10c-0.552,0-1,0.447-1,1v2c0,0.553,0.448,1,1,1s1-0.447,1-1v-2C51,10.447,50.552,10,50,10z"/>
		<path style="fill:#8D6C9F;" d="M56,11c0-0.553-0.448-1-1-1s-1,0.447-1,1v2c0,0.553,0.448,1,1,1s1-0.447,1-1V11z"/>
		<path style="fill:#8D6C9F;" d="M15.713,37.958c0.53,0.155,1.085-0.141,1.245-0.671L17.344,36H19c0.552,0,1-0.447,1-1s-0.448-1-1-1    h-1.056L19,30.48l2.042,6.807C21.172,37.721,21.569,38,22,38c0.095,0,0.192-0.014,0.288-0.042c0.529-0.159,0.83-0.717,0.671-1.245    l-3-10C19.831,26.29,19.441,26,19,26s-0.831,0.29-0.958,0.713l-3,10C14.883,37.241,15.184,37.799,15.713,37.958z"/>
		<path style="fill:#8D6C9F;" d="M27,38h4c1.654,0,3-1.346,3-3v-2c0-0.942-0.445-1.773-1.126-2.324C32.951,30.464,33,30.238,33,30    v-1c0-1.654-1.346-3-3-3h-3c-0.552,0-1,0.447-1,1v4v6C26,37.553,26.448,38,27,38z M32,35c0,0.552-0.449,1-1,1h-3v-4h3    c0.551,0,1,0.448,1,1V35z M31,29l0.001,1H31h-3v-2h2C30.551,28,31,28.448,31,29z"/>
		<path style="fill:#8D6C9F;" d="M56,35V18h1c1.654,0,3-1.346,3-3V9c0-1.654-1.346-3-3-3H35.463l-3.232-3.815    c-0.572-0.675-1.404-1.061-2.288-1.061c-0.008,0-0.017,0-0.024,0c-0.893,0.008-1.73,0.407-2.297,1.099L24.526,6H3    C1.346,6,0,7.346,0,9v6c0,1.654,1.346,3,3,3h1v28H3c-1.65,0-3,1.35-3,3c0,1.65,1.35,3,3,3h26v4c0,0.062,0.024,0.115,0.035,0.173    C27.856,56.578,27,57.685,27,59c0,1.654,1.346,3,3,3s3-1.346,3-3c0-1.315-0.856-2.422-2.035-2.827C30.976,56.115,31,56.062,31,56    v-4h8c1.96,4.69,6.6,8,12,8c7.17,0,13-5.83,13-13C64,41.6,60.69,36.96,56,35z M30,60c-0.551,0-1-0.448-1-1s0.449-1,1-1    s1,0.448,1,1S30.551,60,30,60z M29.168,3.49c0.259-0.315,0.591-0.364,0.766-0.366c0.181,0.036,0.508,0.043,0.771,0.354L32.842,6    h-5.73L29.168,3.49z M3,16c-0.551,0-1-0.448-1-1V9c0-0.552,0.449-1,1-1h19.888h14.27H57c0.551,0,1,0.448,1,1v6    c0,0.552-0.449,1-1,1h-1H4H3z M54,18v16.35C53.04,34.12,52.03,34,51,34c-2.699,0-5.203,0.838-7.283,2.253    C43.894,35.87,44,35.448,44,35c0-0.553-0.448-1-1-1s-1,0.447-1,1c0,0.552-0.449,1-1,1h-2c-0.551,0-1-0.448-1-1v-6    c0-0.552,0.449-1,1-1h2c0.551,0,1,0.448,1,1c0,0.553,0.448,1,1,1s1-0.447,1-1c0-1.654-1.346-3-3-3h-2c-1.654,0-3,1.346-3,3v6    c0,1.654,1.346,3,3,3h2c0.262,0,0.512-0.044,0.755-0.108c-2.093,2.126-3.47,4.957-3.705,8.108H6V18H54z M3,50c-0.55,0-1-0.45-1-1    s0.45-1,1-1h35.05c0.04,0.68,0.15,1.35,0.3,2H3z M51,58c-4.27,0-7.98-2.44-9.8-6c-0.32-0.63-0.59-1.3-0.78-2    c-0.19-0.65-0.31-1.32-0.37-2C40.02,47.67,40,47.34,40,47c0-0.34,0.02-0.67,0.05-1c0.5-5.6,5.22-10,10.95-10    c1.04,0,2.05,0.14,3,0.42c0.7,0.19,1.37,0.46,2,0.78c3.56,1.82,6,5.53,6,9.8C62,53.07,57.07,58,51,58z"/>
		<path style="fill:#FAEFDE;" d="M56.293,42.293L49,49.586l-3.293-3.293c-0.391-0.391-1.023-0.391-1.414,0s-0.391,1.023,0,1.414l4,4    C48.488,51.902,48.744,52,49,52s0.512-0.098,0.707-0.293l8-8c0.391-0.391,0.391-1.023,0-1.414S56.684,41.902,56.293,42.293z"/>
	</g>
</g>
</svg>
